<mxfile host="app.diagrams.net" modified="2022-12-12T13:03:01.162Z" agent="5.0 (Macintosh; Intel Mac OS X 10_15_7) AppleWebKit/537.36 (KHTML, like Gecko) Chrome/103.0.0.0 Safari/537.36" version="20.6.2" etag="JDlQ_o5z80ljkSDplqfv" type="github">
  <diagram id="XU266R6167Km4DB4btFk" name="Page-1">
    <mxGraphModel dx="1002" dy="548" grid="1" gridSize="10" guides="1" tooltips="1" connect="1" arrows="1" fold="1" page="1" pageScale="1" pageWidth="827" pageHeight="1169" background="#F1FAEE" math="0" shadow="0">
      <root>
        <mxCell id="0" />
        <mxCell id="1" parent="0" />
        <mxCell id="Fz3GwBV9MNHShb7QI4Op-4" value="" style="edgeStyle=orthogonalEdgeStyle;rounded=1;orthogonalLoop=1;jettySize=auto;html=1;labelBackgroundColor=#F1FAEE;strokeColor=#457B9D;fontColor=#1D3557;curved=1;sketch=1;" edge="1" parent="1" source="Fz3GwBV9MNHShb7QI4Op-1" target="Fz3GwBV9MNHShb7QI4Op-3">
          <mxGeometry relative="1" as="geometry" />
        </mxCell>
        <mxCell id="Fz3GwBV9MNHShb7QI4Op-12" style="edgeStyle=orthogonalEdgeStyle;rounded=1;orthogonalLoop=1;jettySize=auto;html=1;labelBackgroundColor=#F1FAEE;strokeColor=#457B9D;fontColor=#1D3557;curved=1;sketch=1;" edge="1" parent="1" source="Fz3GwBV9MNHShb7QI4Op-1" target="Fz3GwBV9MNHShb7QI4Op-2">
          <mxGeometry relative="1" as="geometry" />
        </mxCell>
        <mxCell id="Fz3GwBV9MNHShb7QI4Op-44" style="edgeStyle=orthogonalEdgeStyle;curved=1;sketch=1;hachureGap=4;jiggle=2;orthogonalLoop=1;jettySize=auto;html=1;strokeColor=#457B9D;fontFamily=Helvetica;fontSize=12;fontColor=#1D3557;labelBackgroundColor=#F1FAEE;" edge="1" parent="1" source="Fz3GwBV9MNHShb7QI4Op-1" target="Fz3GwBV9MNHShb7QI4Op-43">
          <mxGeometry relative="1" as="geometry" />
        </mxCell>
        <mxCell id="Fz3GwBV9MNHShb7QI4Op-50" value="" style="edgeStyle=orthogonalEdgeStyle;curved=1;sketch=1;hachureGap=4;jiggle=2;orthogonalLoop=1;jettySize=auto;html=1;strokeColor=#457B9D;fontFamily=Helvetica;fontSize=12;fontColor=#1D3557;labelBackgroundColor=#F1FAEE;" edge="1" parent="1" source="Fz3GwBV9MNHShb7QI4Op-1" target="Fz3GwBV9MNHShb7QI4Op-2">
          <mxGeometry relative="1" as="geometry" />
        </mxCell>
        <mxCell id="Fz3GwBV9MNHShb7QI4Op-52" style="edgeStyle=orthogonalEdgeStyle;curved=1;sketch=1;hachureGap=4;jiggle=2;orthogonalLoop=1;jettySize=auto;html=1;strokeColor=#457B9D;fontFamily=Helvetica;fontSize=12;fontColor=#1D3557;labelBackgroundColor=#F1FAEE;" edge="1" parent="1" source="Fz3GwBV9MNHShb7QI4Op-1" target="Fz3GwBV9MNHShb7QI4Op-51">
          <mxGeometry relative="1" as="geometry">
            <Array as="points">
              <mxPoint x="290" y="150" />
              <mxPoint x="620" y="150" />
            </Array>
          </mxGeometry>
        </mxCell>
        <mxCell id="Fz3GwBV9MNHShb7QI4Op-1" value="New Feature&lt;br&gt;(Story/EPIC)" style="rounded=1;whiteSpace=wrap;html=1;fillColor=#A8DADC;strokeColor=#457B9D;fontColor=#1D3557;sketch=1;" vertex="1" parent="1">
          <mxGeometry x="230" y="40" width="120" height="60" as="geometry" />
        </mxCell>
        <mxCell id="Fz3GwBV9MNHShb7QI4Op-2" value="Test Plan &lt;br&gt;-Test Technique &amp;amp; Deliverables,Schedule&lt;br&gt;(Test Lead &amp;amp; Module Lead)" style="rounded=1;whiteSpace=wrap;html=1;fillColor=#A8DADC;strokeColor=#457B9D;fontColor=#1D3557;sketch=1;" vertex="1" parent="1">
          <mxGeometry x="460" y="40" width="190" height="60" as="geometry" />
        </mxCell>
        <mxCell id="Fz3GwBV9MNHShb7QI4Op-26" style="edgeStyle=orthogonalEdgeStyle;rounded=1;orthogonalLoop=1;jettySize=auto;html=1;entryX=0.5;entryY=0;entryDx=0;entryDy=0;labelBackgroundColor=#F1FAEE;strokeColor=#457B9D;fontColor=#1D3557;curved=1;sketch=1;" edge="1" parent="1" source="Fz3GwBV9MNHShb7QI4Op-3" target="Fz3GwBV9MNHShb7QI4Op-6">
          <mxGeometry relative="1" as="geometry" />
        </mxCell>
        <mxCell id="Fz3GwBV9MNHShb7QI4Op-60" style="edgeStyle=orthogonalEdgeStyle;curved=1;sketch=1;hachureGap=4;jiggle=2;orthogonalLoop=1;jettySize=auto;html=1;exitX=0.5;exitY=1;exitDx=0;exitDy=0;entryX=0.5;entryY=0;entryDx=0;entryDy=0;strokeColor=#457B9D;fontFamily=Architects Daughter;fontSource=https%3A%2F%2Ffonts.googleapis.com%2Fcss%3Ffamily%3DArchitects%2BDaughter;fontSize=24;fontColor=#1D3557;labelBackgroundColor=#F1FAEE;" edge="1" parent="1" source="Fz3GwBV9MNHShb7QI4Op-3" target="Fz3GwBV9MNHShb7QI4Op-5">
          <mxGeometry relative="1" as="geometry" />
        </mxCell>
        <mxCell id="Fz3GwBV9MNHShb7QI4Op-66" style="edgeStyle=orthogonalEdgeStyle;curved=1;sketch=1;hachureGap=4;jiggle=2;orthogonalLoop=1;jettySize=auto;html=1;exitX=0.5;exitY=1;exitDx=0;exitDy=0;entryX=0.5;entryY=0;entryDx=0;entryDy=0;strokeColor=#457B9D;fontFamily=Architects Daughter;fontSource=https%3A%2F%2Ffonts.googleapis.com%2Fcss%3Ffamily%3DArchitects%2BDaughter;fontSize=24;fontColor=#1D3557;labelBackgroundColor=#F1FAEE;" edge="1" parent="1" source="Fz3GwBV9MNHShb7QI4Op-3" target="Fz3GwBV9MNHShb7QI4Op-24">
          <mxGeometry relative="1" as="geometry" />
        </mxCell>
        <mxCell id="Fz3GwBV9MNHShb7QI4Op-3" value="New API&lt;br&gt;(task)" style="whiteSpace=wrap;html=1;rounded=1;fillColor=#A8DADC;strokeColor=#457B9D;fontColor=#1D3557;sketch=1;" vertex="1" parent="1">
          <mxGeometry x="230" y="150" width="120" height="60" as="geometry" />
        </mxCell>
        <mxCell id="Fz3GwBV9MNHShb7QI4Op-21" value="" style="edgeStyle=orthogonalEdgeStyle;rounded=1;orthogonalLoop=1;jettySize=auto;html=1;labelBackgroundColor=#F1FAEE;strokeColor=#457B9D;fontColor=#1D3557;curved=1;sketch=1;" edge="1" parent="1" source="Fz3GwBV9MNHShb7QI4Op-5" target="Fz3GwBV9MNHShb7QI4Op-18">
          <mxGeometry relative="1" as="geometry" />
        </mxCell>
        <mxCell id="Fz3GwBV9MNHShb7QI4Op-5" value="Integration Tests&lt;br&gt;(Developer)" style="whiteSpace=wrap;html=1;rounded=1;fillColor=#A8DADC;strokeColor=#457B9D;fontColor=#1D3557;sketch=1;" vertex="1" parent="1">
          <mxGeometry x="380" y="260" width="120" height="60" as="geometry" />
        </mxCell>
        <mxCell id="Fz3GwBV9MNHShb7QI4Op-23" value="" style="edgeStyle=orthogonalEdgeStyle;rounded=1;orthogonalLoop=1;jettySize=auto;html=1;labelBackgroundColor=#F1FAEE;strokeColor=#457B9D;fontColor=#1D3557;curved=1;sketch=1;" edge="1" parent="1" source="Fz3GwBV9MNHShb7QI4Op-6" target="Fz3GwBV9MNHShb7QI4Op-22">
          <mxGeometry relative="1" as="geometry" />
        </mxCell>
        <mxCell id="Fz3GwBV9MNHShb7QI4Op-6" value="Unit Test Case (coverage enabled)&lt;br&gt;(Developer)" style="whiteSpace=wrap;html=1;rounded=1;fillColor=#A8DADC;strokeColor=#457B9D;fontColor=#1D3557;sketch=1;" vertex="1" parent="1">
          <mxGeometry x="230" y="260" width="120" height="60" as="geometry" />
        </mxCell>
        <mxCell id="Fz3GwBV9MNHShb7QI4Op-29" value="" style="edgeStyle=orthogonalEdgeStyle;rounded=1;orthogonalLoop=1;jettySize=auto;html=1;labelBackgroundColor=#F1FAEE;strokeColor=#457B9D;fontColor=#1D3557;curved=1;sketch=1;" edge="1" parent="1" source="Fz3GwBV9MNHShb7QI4Op-18" target="Fz3GwBV9MNHShb7QI4Op-28">
          <mxGeometry relative="1" as="geometry" />
        </mxCell>
        <mxCell id="Fz3GwBV9MNHShb7QI4Op-18" value="Create Test Suite&lt;br&gt;&amp;amp;&lt;br&gt;Add it to Test Framework&lt;br&gt;(Developer)" style="whiteSpace=wrap;html=1;rounded=1;fillColor=#A8DADC;strokeColor=#457B9D;fontColor=#1D3557;sketch=1;" vertex="1" parent="1">
          <mxGeometry x="370" y="340" width="140" height="60" as="geometry" />
        </mxCell>
        <mxCell id="Fz3GwBV9MNHShb7QI4Op-39" style="edgeStyle=orthogonalEdgeStyle;curved=1;sketch=1;hachureGap=4;jiggle=2;orthogonalLoop=1;jettySize=auto;html=1;strokeColor=#457B9D;fontFamily=Helvetica;fontSize=12;fontColor=#1D3557;labelBackgroundColor=#F1FAEE;" edge="1" parent="1" source="Fz3GwBV9MNHShb7QI4Op-22" target="Fz3GwBV9MNHShb7QI4Op-28">
          <mxGeometry relative="1" as="geometry" />
        </mxCell>
        <mxCell id="Fz3GwBV9MNHShb7QI4Op-22" value="Execute on every checkin&lt;br&gt;(Automated)" style="whiteSpace=wrap;html=1;rounded=1;fillColor=#A8DADC;strokeColor=#457B9D;fontColor=#1D3557;sketch=1;" vertex="1" parent="1">
          <mxGeometry x="230" y="350" width="120" height="60" as="geometry" />
        </mxCell>
        <mxCell id="Fz3GwBV9MNHShb7QI4Op-62" style="edgeStyle=orthogonalEdgeStyle;curved=1;sketch=1;hachureGap=4;jiggle=2;orthogonalLoop=1;jettySize=auto;html=1;strokeColor=#457B9D;fontFamily=Architects Daughter;fontSource=https%3A%2F%2Ffonts.googleapis.com%2Fcss%3Ffamily%3DArchitects%2BDaughter;fontSize=24;fontColor=#1D3557;exitX=0.5;exitY=1;exitDx=0;exitDy=0;labelBackgroundColor=#F1FAEE;" edge="1" parent="1" source="Fz3GwBV9MNHShb7QI4Op-24" target="Fz3GwBV9MNHShb7QI4Op-28">
          <mxGeometry relative="1" as="geometry">
            <Array as="points">
              <mxPoint x="90" y="430" />
              <mxPoint x="320" y="430" />
            </Array>
          </mxGeometry>
        </mxCell>
        <mxCell id="Fz3GwBV9MNHShb7QI4Op-24" value="Documentation (Wiki)&lt;br&gt;&amp;amp;&lt;br&gt;Manual Test Cases &lt;br&gt;(if any)" style="whiteSpace=wrap;html=1;rounded=1;fillColor=#A8DADC;strokeColor=#457B9D;fontColor=#1D3557;sketch=1;" vertex="1" parent="1">
          <mxGeometry x="30" y="260" width="120" height="60" as="geometry" />
        </mxCell>
        <mxCell id="Fz3GwBV9MNHShb7QI4Op-28" value="&lt;div style=&quot;text-align: left;&quot;&gt;&lt;ul&gt;&lt;li&gt;&lt;span style=&quot;background-color: initial;&quot;&gt;Execute and Generate Test Report (Dashboard)&lt;/span&gt;&lt;/li&gt;&lt;/ul&gt;&lt;ul&gt;&lt;li&gt;&lt;span style=&quot;background-color: initial;&quot;&gt;Maintain&amp;nbsp;&lt;/span&gt;Traceability&lt;/li&gt;&lt;/ul&gt;&lt;ul&gt;&lt;li&gt;Capture Other Test Metrices as Defined in Plan&lt;/li&gt;&lt;/ul&gt;&lt;ul&gt;&lt;li&gt;Email Report&lt;/li&gt;&lt;/ul&gt;&lt;/div&gt;" style="whiteSpace=wrap;html=1;rounded=1;fillColor=#A8DADC;strokeColor=#457B9D;fontColor=#1D3557;sketch=1;" vertex="1" parent="1">
          <mxGeometry x="170" y="465" width="300" height="120" as="geometry" />
        </mxCell>
        <mxCell id="Fz3GwBV9MNHShb7QI4Op-33" value="&lt;font color=&quot;#1d3557&quot;&gt;Dependent tasks&lt;/font&gt;" style="text;html=1;strokeColor=none;fillColor=none;align=center;verticalAlign=middle;whiteSpace=wrap;rounded=0;sketch=1;hachureGap=4;jiggle=2;fontFamily=Helvetica;fontSize=12;fontColor=#1D3557;" vertex="1" parent="1">
          <mxGeometry x="240" y="230" width="130" height="20" as="geometry" />
        </mxCell>
        <mxCell id="Fz3GwBV9MNHShb7QI4Op-45" style="edgeStyle=orthogonalEdgeStyle;curved=1;sketch=1;hachureGap=4;jiggle=2;orthogonalLoop=1;jettySize=auto;html=1;entryX=0.5;entryY=0;entryDx=0;entryDy=0;strokeColor=#457B9D;fontFamily=Helvetica;fontSize=12;fontColor=#1D3557;labelBackgroundColor=#F1FAEE;" edge="1" parent="1" source="Fz3GwBV9MNHShb7QI4Op-43" target="Fz3GwBV9MNHShb7QI4Op-24">
          <mxGeometry relative="1" as="geometry" />
        </mxCell>
        <mxCell id="Fz3GwBV9MNHShb7QI4Op-43" value="Documentation (Wiki)&lt;br&gt;with relevant Links" style="rounded=1;whiteSpace=wrap;html=1;fillColor=#A8DADC;strokeColor=#457B9D;fontColor=#1D3557;sketch=1;hachureGap=4;jiggle=2;fontFamily=Helvetica;fontSize=12;" vertex="1" parent="1">
          <mxGeometry x="30" y="150" width="120" height="60" as="geometry" />
        </mxCell>
        <mxCell id="Fz3GwBV9MNHShb7QI4Op-63" style="edgeStyle=orthogonalEdgeStyle;curved=1;sketch=1;hachureGap=4;jiggle=2;orthogonalLoop=1;jettySize=auto;html=1;strokeColor=#457B9D;fontFamily=Architects Daughter;fontSource=https%3A%2F%2Ffonts.googleapis.com%2Fcss%3Ffamily%3DArchitects%2BDaughter;fontSize=24;fontColor=#1D3557;labelBackgroundColor=#F1FAEE;" edge="1" parent="1" source="Fz3GwBV9MNHShb7QI4Op-51" target="Fz3GwBV9MNHShb7QI4Op-28">
          <mxGeometry relative="1" as="geometry">
            <Array as="points">
              <mxPoint x="610" y="440" />
              <mxPoint x="320" y="440" />
            </Array>
          </mxGeometry>
        </mxCell>
        <mxCell id="Fz3GwBV9MNHShb7QI4Op-51" value="E2E UI Automation&lt;br&gt;(Test Engineers)" style="rounded=1;whiteSpace=wrap;html=1;fillColor=#A8DADC;strokeColor=#457B9D;fontColor=#1D3557;sketch=1;hachureGap=4;jiggle=2;fontFamily=Helvetica;fontSize=12;" vertex="1" parent="1">
          <mxGeometry x="540" y="260" width="180" height="60" as="geometry" />
        </mxCell>
        <mxCell id="Fz3GwBV9MNHShb7QI4Op-67" value="" style="triangle;whiteSpace=wrap;html=1;sketch=1;hachureGap=4;jiggle=2;fontFamily=Architects Daughter;fontSource=https%3A%2F%2Ffonts.googleapis.com%2Fcss%3Ffamily%3DArchitects%2BDaughter;fontSize=24;fontColor=#1D3557;direction=north;fillColor=#A8DADC;strokeColor=#457B9D;" vertex="1" parent="1">
          <mxGeometry x="708" y="165" width="240" height="300" as="geometry" />
        </mxCell>
        <mxCell id="Fz3GwBV9MNHShb7QI4Op-75" value="" style="shape=link;html=1;sketch=1;hachureGap=4;jiggle=2;strokeColor=#457B9D;fontFamily=Architects Daughter;fontSource=https%3A%2F%2Ffonts.googleapis.com%2Fcss%3Ffamily%3DArchitects%2BDaughter;fontSize=24;fontColor=#1D3557;curved=1;exitX=0.267;exitY=0.138;exitDx=0;exitDy=0;exitPerimeter=0;entryX=0.273;entryY=0.854;entryDx=0;entryDy=0;entryPerimeter=0;labelBackgroundColor=#F1FAEE;" edge="1" parent="1" source="Fz3GwBV9MNHShb7QI4Op-67" target="Fz3GwBV9MNHShb7QI4Op-67">
          <mxGeometry width="100" relative="1" as="geometry">
            <mxPoint x="788" y="384.5" as="sourcePoint" />
            <mxPoint x="888" y="384.5" as="targetPoint" />
          </mxGeometry>
        </mxCell>
        <mxCell id="Fz3GwBV9MNHShb7QI4Op-77" value="" style="shape=link;html=1;sketch=1;hachureGap=4;jiggle=2;strokeColor=#457B9D;fontFamily=Architects Daughter;fontSource=https%3A%2F%2Ffonts.googleapis.com%2Fcss%3Ffamily%3DArchitects%2BDaughter;fontSize=24;fontColor=#1D3557;curved=1;labelBackgroundColor=#F1FAEE;" edge="1" parent="1">
          <mxGeometry width="100" relative="1" as="geometry">
            <mxPoint x="778" y="294.5" as="sourcePoint" />
            <mxPoint x="878" y="294.5" as="targetPoint" />
          </mxGeometry>
        </mxCell>
        <mxCell id="Fz3GwBV9MNHShb7QI4Op-78" value="Unit Tests" style="text;html=1;strokeColor=none;fillColor=none;align=center;verticalAlign=middle;whiteSpace=wrap;rounded=0;shadow=0;glass=0;sketch=1;hachureGap=4;jiggle=2;fontFamily=Architects Daughter;fontSource=https%3A%2F%2Ffonts.googleapis.com%2Fcss%3Ffamily%3DArchitects%2BDaughter;fontSize=24;fontColor=#1D3557;" vertex="1" parent="1">
          <mxGeometry x="758" y="405" width="140" height="30" as="geometry" />
        </mxCell>
        <mxCell id="Fz3GwBV9MNHShb7QI4Op-80" value="Integration&lt;br&gt;Tests" style="text;html=1;strokeColor=none;fillColor=none;align=center;verticalAlign=middle;whiteSpace=wrap;rounded=0;shadow=0;glass=0;sketch=1;hachureGap=4;jiggle=2;fontFamily=Architects Daughter;fontSource=https%3A%2F%2Ffonts.googleapis.com%2Fcss%3Ffamily%3DArchitects%2BDaughter;fontSize=24;fontColor=#1D3557;" vertex="1" parent="1">
          <mxGeometry x="758" y="325" width="140" height="30" as="geometry" />
        </mxCell>
        <mxCell id="Fz3GwBV9MNHShb7QI4Op-81" value="E2E&lt;br&gt;Tests" style="text;html=1;strokeColor=none;fillColor=none;align=center;verticalAlign=middle;whiteSpace=wrap;rounded=0;shadow=0;glass=0;sketch=1;hachureGap=4;jiggle=2;fontFamily=Architects Daughter;fontSource=https%3A%2F%2Ffonts.googleapis.com%2Fcss%3Ffamily%3DArchitects%2BDaughter;fontSize=24;fontColor=#1D3557;" vertex="1" parent="1">
          <mxGeometry x="758" y="245" width="140" height="30" as="geometry" />
        </mxCell>
        <mxCell id="Fz3GwBV9MNHShb7QI4Op-82" value="Manual" style="whiteSpace=wrap;html=1;shape=mxgraph.basic.cloud_callout;sketch=1;hachureGap=4;jiggle=2;strokeColor=#457B9D;fontFamily=Architects Daughter;fontSource=https%3A%2F%2Ffonts.googleapis.com%2Fcss%3Ffamily%3DArchitects%2BDaughter;fontSize=20;fontColor=#1D3557;fillColor=#A8DADC;" vertex="1" parent="1">
          <mxGeometry x="828" y="105" width="90" height="60" as="geometry" />
        </mxCell>
      </root>
    </mxGraphModel>
  </diagram>
</mxfile>
